<?xml version="1.0" encoding="UTF-8" standalone="no"?>
<svg
   xmlns:dc="http://purl.org/dc/elements/1.1/"
   xmlns:cc="http://creativecommons.org/ns#"
   xmlns:rdf="http://www.w3.org/1999/02/22-rdf-syntax-ns#"
   xmlns:svg="http://www.w3.org/2000/svg"
   xmlns="http://www.w3.org/2000/svg"
   id="svg8"
   version="1.1"
   viewBox="0 0 11.41004 11.41004"
   height="43.125"
   width="43.125">
  <metadata
     id="metadata14">
    <rdf:RDF>
      <cc:Work
         rdf:about="">
        <dc:format>image/svg+xml</dc:format>
        <dc:type
           rdf:resource="http://purl.org/dc/dcmitype/StillImage" />
        <dc:title></dc:title>
      </cc:Work>
    </rdf:RDF>
  </metadata>
  <defs
     id="defs12" />
  <g
     transform="translate(-11.410041,15.841766)"
     id="g858">
    <path
       style="opacity:1;fill:#ff2500;fill-opacity:1;stroke:none;stroke-width:0.24999999;stroke-miterlimit:4;stroke-dasharray:none;stroke-opacity:1"
       d="m 64.6875,-59.875 a 21.562501,21.562501 0 0 0 -1.8125,0.0918 v 5.90625 A 15.6875,15.6875 0 0 1 64.6875,-54 15.6875,15.6875 0 0 1 80.375,-38.3125 15.6875,15.6875 0 0 1 64.6875,-22.625 15.6875,15.6875 0 0 1 62.875,-22.742188 v 5.902344 A 21.562501,21.562501 0 0 0 64.6875,-16.75 21.562501,21.562501 0 0 0 86.25,-38.3125 21.562501,21.562501 0 0 0 64.6875,-59.875 Z"
       transform="scale(0.26458065)"
       id="path852" />
    <path
       style="opacity:1;fill:#c70000;fill-opacity:1;stroke:none;stroke-width:0.24999999;stroke-miterlimit:4;stroke-dasharray:none;stroke-opacity:1"
       d="m 61.75,-59.646484 a 21.562501,21.562501 0 0 0 -10.875,4.783203 v 9.123047 a 15.6875,15.6875 0 0 1 10.875,-7.97461 z"
       transform="scale(0.26458065)"
       id="path850" />
    <path
       style="opacity:1;fill:#520000;fill-opacity:1;stroke:none;stroke-width:0.24999999;stroke-miterlimit:4;stroke-dasharray:none;stroke-opacity:1"
       d="m 49.75,-53.830078 a 21.562501,21.562501 0 0 0 -6.625,15.517578 21.562501,21.562501 0 0 0 6.625,15.544922 v -10.8125 A 15.6875,15.6875 0 0 1 49,-38.3125 a 15.6875,15.6875 0 0 1 0.75,-4.771484 z"
       transform="scale(0.26458065)"
       id="path848" />
    <path
       style="opacity:1;fill:#c70000;fill-opacity:1;stroke:none;stroke-width:0.24999999;stroke-miterlimit:4;stroke-dasharray:none;stroke-opacity:1"
       d="m 50.875,-30.904297 v 9.123047 a 21.562501,21.562501 0 0 0 10.875,4.798828 v -5.93164 a 15.6875,15.6875 0 0 1 -10.875,-7.990235 z"
       transform="scale(0.26458065)"
       id="path829" />
  </g>
</svg>
