<?xml version="1.0" encoding="UTF-8" standalone="no"?>
<!-- Generator: Adobe Illustrator 20.0.0, SVG Export Plug-In . SVG Version: 6.00 Build 0)  -->

<svg
   xmlns:dc="http://purl.org/dc/elements/1.1/"
   xmlns:cc="http://creativecommons.org/ns#"
   xmlns:rdf="http://www.w3.org/1999/02/22-rdf-syntax-ns#"
   xmlns:svg="http://www.w3.org/2000/svg"
   xmlns="http://www.w3.org/2000/svg"
   xmlns:sodipodi="http://sodipodi.sourceforge.net/DTD/sodipodi-0.dtd"
   xmlns:inkscape="http://www.inkscape.org/namespaces/inkscape"
   version="1.1"
   id="Layer_1"
   x="0px"
   y="0px"
   viewBox="0 0 3688.371 353.75203"
   enable-background="new 0 0 2628.279 404.36"
   xml:space="preserve"
   sodipodi:docname="footer-bg.svg"
   width="3688.3711"
   height="353.75201"
   inkscape:version="0.92.4 (5da689c313, 2019-01-14)"><metadata
   id="metadata9"><rdf:RDF><cc:Work
       rdf:about=""><dc:format>image/svg+xml</dc:format><dc:type
         rdf:resource="http://purl.org/dc/dcmitype/StillImage" /><dc:title /></cc:Work></rdf:RDF></metadata><defs
   id="defs7" /><sodipodi:namedview
   pagecolor="#ffffff"
   bordercolor="#666666"
   borderopacity="1"
   objecttolerance="10"
   gridtolerance="10"
   guidetolerance="10"
   inkscape:pageopacity="0"
   inkscape:pageshadow="2"
   inkscape:window-width="1920"
   inkscape:window-height="1017"
   id="namedview5"
   showgrid="false"
   fit-margin-top="0"
   fit-margin-left="0"
   fit-margin-right="0"
   fit-margin-bottom="0"
   inkscape:zoom="0.30885555"
   inkscape:cx="1638.7888"
   inkscape:cy="52.007518"
   inkscape:window-x="-8"
   inkscape:window-y="-8"
   inkscape:window-maximized="1"
   inkscape:current-layer="Layer_1" />
<path
   d="M 3226.9826,42.08287 C 3125.2776,70.96869 3073.189,137.344 3073.189,137.344 c -1.197,0.862 -2.586,1.309 -4,1.464 -0.13,0.347 -0.378,1.042 -0.509,1.389 0.434,0.056 1.309,0.18 1.743,0.242 -0.254,1.445 -0.409,2.896 -0.459,4.36 -0.949,0.292 -2.059,0.447 -2.462,1.445 -1.414,4.409 -0.992,9.129 -0.124,13.606 -1.166,1.631 -2.667,2.964 -4.068,4.36 -3.516,-0.353 -7.231,-0.626 -10.611,0.521 -1.488,2.344 -0.564,5.625 -2.499,7.628 -3.25,0.558 -6.506,0.986 -9.718,1.625 -2.735,2.53 -2.785,6.809 -2.115,10.22 -1.079,3.231 -0.198,6.617 -0.85,9.904 0.601,3.132 -0.781,6.127 -0.434,9.247 0.093,2.214 -0.707,4.378 -1.65,6.338 -6.673,2.481 -14.016,1.972 -20.819,3.895 -3.05,0.769 -3.263,8.142 -1.011,9.414 -0.043,0.322 -0.124,0.974 -0.161,1.296 -2.096,0.26 -4.465,0.124 -5.892,1.929 0.043,1.433 0.062,2.865 0.05,4.298 -1.507,0.843 -2.567,2.946 -4.298,3.008 -3.144,-2.989 -7.646,-3.219 -11.733,-3.144 -0.118,-0.788 -0.186,-1.575 -0.217,-2.369 0.986,-0.639 1.984,-1.309 2.952,-2.034 -2.661,-1.129 -5.532,-1.519 -8.391,-1.42 0.447,-1.197 1.352,-2.127 2.022,-3.212 0.409,-2.344 0.558,-4.899 -0.664,-7.039 -7.882,-1.029 -15.87,-0.918 -23.771,-1.73 -0.161,-2.192 1.279,-36.639 1.321,-37.259 -1.036,-0.521 -2.109,-0.961 -3.169,-1.321 -2.083,1.253 -4.595,1.47 -6.567,2.921 -2.157,-5.655 0.794,-10.51 -2.22,-12.62 -3.169,-0.695 -6.71,0.763 -9.556,-1.16 -0.763,3.839 -0.906,7.752 -1.16,11.646 -1.19,0.112 -2.363,0.198 -3.504,0.267 -0.527,0.757 -1.023,1.507 -1.495,2.27 -1.489,-2.493 -4.75,-1.885 -7.194,-2.233 -1.805,-0.502 -2.276,1.457 -2.946,2.642 -0.26,0.068 -0.781,0.198 -1.042,0.267 0.05,-1.129 -0.354,-2.127 -1.129,-2.915 -0.819,-0.019 -1.6,-0.043 -2.363,-0.081 -0.67,1.65 -0.67,3.411 0.012,5.054 1.005,0.05 2.046,0.099 3.107,0.143 -1.656,5.147 -1.185,10.617 -1.699,15.932 -1.898,1.104 -3.926,1.929 -5.811,3.008 -2.015,-1.414 -4.267,-2.425 -6.363,-3.665 -0.843,-0.484 0.149,-1.495 0.298,-2.127 -3.359,-5.31 -3.698,-4.448 -13.551,-4.843 -0.36,1.699 -0.794,3.38 -1.364,5.011 -0.447,-0.043 -1.333,-0.13 -1.774,-0.18 -0.397,-1.395 -0.577,-2.84 -0.478,-4.291 -1.042,-0.484 -2.053,-0.955 -3.063,-1.414 0.155,-4.676 0.769,-9.364 0.409,-14.04 -4.422,0.298 -8.831,0.099 -13.246,0.019 -0.571,2.034 -0.577,4.75 -2.729,5.817 -3.2,1.091 -6.431,-0.502 -9.538,-1.116 -0.416,0.533 -0.806,1.067 -1.166,1.594 -1.507,0.521 -2.964,1.147 -4.391,1.792 -1.668,-0.719 -3.33,-1.426 -4.992,-2.115 0.037,-2.22 0.056,-4.44 -0.081,-6.66 -2.896,1.6 -6.127,0.719 -9.222,0.868 -1.302,0.707 -1.526,2.481 -2.691,3.287 -1.426,0.459 -2.927,0.533 -4.36,0.732 -2.231,-8.236 -1.416,-6.429 -11.467,-7.522 -0.174,-1.904 0.155,-3.907 -0.366,-5.755 -0.875,-1.625 -2.332,0.043 -3.448,0.428 -1.929,1.247 -3.808,-0.564 -5.619,-1.098 -3.086,-1.234 -3.018,1.95 -7.473,-2.561 -0.017,-19.512 2.407,-22.088 -1.557,-22.605 0.037,0.856 0.106,1.705 0.205,2.555 -0.881,1.153 -2.462,2.183 -2.127,3.833 0.201,1.299 0,12.641 -0.688,16.174 -0.825,3.126 1.954,6.121 0.428,9.197 -1.408,1.16 -3.368,1.24 -5.036,1.749 1.209,0.167 2.45,0.329 3.708,0.484 0.13,0.397 0.403,1.191 0.533,1.588 -0.509,0.062 -1.532,0.192 -2.047,0.254 -2.561,1.47 -2.989,4.465 -3.721,7.039 -0.93,-0.167 -1.365,-1.129 -1.991,-1.693 -0.93,0.397 -1.823,0.788 -2.704,1.166 -0.936,2.611 -0.725,5.408 -1.141,8.099 -0.273,1.73 -2.01,2.456 -3.293,3.299 -0.149,0.471 -0.434,1.42 -0.577,1.891 -1.042,-1.054 -2.046,-2.139 -3.039,-3.206 -1.699,0.664 -3.498,0.918 -5.284,0.812 -0.868,3.696 -0.707,7.504 -0.899,11.262 -1.079,0.205 -2.102,0.409 -3.126,0.62 -0.899,-2.958 -0.279,-6.065 -0.391,-9.091 0.161,-1.612 -1.606,-2.307 -2.549,-3.274 -0.509,1.122 -0.992,2.245 -1.463,3.361 -1.482,-0.478 -2.332,-1.805 -3.194,-2.983 -1.352,0.18 -2.71,0.36 -4.025,0.515 -0.323,0.676 -0.626,1.346 -0.893,2.009 -2.389,0.835 -2.171,6.641 -2.022,9.147 -2.214,0.186 -4.167,1.234 -6.282,1.693 -4.533,0.006 -9.091,-0.974 -13.606,-0.304 -1.345,2.493 -0.329,5.854 -1.928,8.409 -4.81,0.148 -3.941,-1.454 -5.023,9.327 -0.546,0.298 -1.042,0.62 -1.501,0.961 -0.974,4.279 -0.341,8.831 -1.532,13.067 -0.868,0.006 -1.712,0.012 -2.53,0.025 -0.335,0.775 -0.664,1.557 -0.93,2.332 -2.17,0.298 -4.335,0.564 -6.499,0.657 -2.332,-1.786 -5.371,-1.147 -8.081,-1.321 -2.102,0.143 -4.937,0.099 -5.923,2.357 -3.219,-2.307 -7.417,-0.905 -11.057,-1.674 -0.571,-0.478 -0.794,-1.6 -1.649,-1.488 -2.561,0.074 -5.036,-0.447 -7.485,-1.017 -1.408,-3.808 -0.01,-7.876 -0.198,-11.795 -0.428,-0.912 -1.495,-1.24 -2.22,-1.805 0.143,-3.243 1.532,-6.989 -0.502,-9.879 -1.166,-0.006 -2.282,-0.025 -3.405,-0.05 -0.602,-0.732 -1.178,-1.464 -1.736,-2.202 -1.191,-0.186 -2.704,0.335 -3.529,-0.732 -0.453,-4 0.236,-8.019 0.217,-12.031 1.426,-0.254 2.871,-0.527 4.329,-0.819 -0.112,-1.005 -0.192,-2.009 -0.273,-3.014 -2.722,-0.316 -5.036,1.302 -7.572,1.78 -1.96,-0.986 -3.156,-3.076 -4.992,-4.298 0.105,-0.899 0.242,-1.798 0.416,-2.698 -3.068,-2.307 -14.111,-1.01 -21.538,-2.394 -0.01,-1.519 0.781,-2.815 1.29,-4.205 0.358,-4.703 0.275,-25.225 0.787,-26.171 -1.215,-0.316 -2.437,-0.62 -3.615,-0.924 -0.521,-3.647 -2.239,-7.082 -2.103,-10.828 -2.691,-1.197 -5.848,-0.688 -8.025,1.259 -1.557,-1.042 -3.225,-1.873 -4.93,-2.598 -0.043,-1.191 -0.062,-2.381 -0.043,-3.578 -0.583,-0.434 -1.147,-0.874 -1.668,-1.315 -1.365,2.487 -4.273,3.764 -7.002,3.733 -1.488,-0.459 -2.822,-1.278 -4.18,-1.972 -0.521,-0.775 -1.036,-1.55 -1.513,-2.332 -12.744,0.236 -25.427,-1.774 -38.171,-1.153 -1.029,0.806 -0.552,2.474 -1.65,3.219 -0.36,-1.11 -0.645,-2.233 -0.955,-3.355 -1.228,0 -2.431,-0.062 -3.603,0.074 -2.108,2.803 -1.116,6.474 -1.464,9.699 -0.663,1.017 -1.96,0.825 -2.952,1.036 -0.087,2.722 -0.037,5.451 -0.49,8.143 -1.067,-0.273 -1.929,-0.856 -2.71,-1.563 -0.961,3.678 -0.968,7.64 0.416,11.212 -1.054,1.364 -1.216,3.057 -1.185,4.713 -3.163,0.806 -6.437,0.8 -9.656,0.633 -0.651,-0.447 -1.309,-0.893 -1.91,-1.34 -0.01,1.972 0.019,3.963 -0.434,5.885 -4.285,-0.347 -8.248,1.867 -12.546,1.34 0.062,3.981 -0.775,7.913 -0.571,11.895 -3.305,-0.788 -6.71,-0.763 -10.078,-0.837 -1.761,0.056 -3.194,-1.637 -4.967,-0.943 -0.019,-0.843 -0.012,-1.693 0.025,-2.543 -0.589,-0.509 -1.123,-1.017 -1.656,-1.532 -0.254,0.316 -0.763,0.943 -1.017,1.259 -1.191,0.167 -3.343,-0.434 -3.479,1.278 0,0 -2.719,69.017 -3.151,94.722 -1.966,0.397 -3.932,0.856 -5.929,0.682 -0.378,6.239 -0.843,12.49 -0.874,18.747 -3.026,0.006 -6.04,-0.143 -9.029,-0.384 -0.205,-0.633 -0.347,-1.278 -0.44,-1.922 -0.552,-0.564 -1.085,-1.129 -1.588,-1.693 -0.533,0.006 -1.594,0.025 -2.121,0.031 -1.464,1.953 -0.844,4.54 -2.022,6.605 -1.092,5.482 -0.316,11.231 -1.662,16.682 -1.885,-1.073 -3.826,-3.349 -6.158,-2.121 -1.693,0.267 -2.326,1.953 -3.101,3.219 -0.806,-0.05 -1.718,-0.676 -2.35,0.043 -0.155,3.591 0.062,7.219 -0.788,10.747 -4.94,0.246 -1.823,10.95 -5.098,13.798 -1.463,3.051 -1.916,6.493 -2.443,9.811 -0.335,-0.149 -1.005,-0.44 -1.339,-0.583 -2.094,-7.875 -0.42,-7.138 -3.398,-11.2 -0.422,-12.117 -0.354,-10.484 -3.119,-12.769 -0.136,-4.819 0.155,-9.637 -0.031,-14.456 -1.042,0.905 -1.451,2.915 -3.051,2.809 -0.893,-1.265 -1.036,-2.859 -1.377,-4.316 -0.887,0.136 -1.792,0.267 -2.636,0.391 -0.75,1.079 -1.532,2.121 -2.332,3.144 -0.422,-0.012 -1.265,-0.037 -1.693,-0.043 -1.536,-3.372 -0.216,-14.398 -0.174,-20.887 -0.223,-0.552 -0.471,-1.091 -0.726,-1.606 -1.346,-0.447 -2.611,-1.029 -3.789,-1.767 -1.129,-0.298 -2.226,-0.608 -3.312,-0.936 -2.57,-11.458 2.089,-10.493 -4.552,-11.367 -1.305,-3.251 3.834,-86.618 1.73,-87.758 -3.758,-0.831 -7.634,-0.75 -11.448,-0.825 -0.143,-0.62 -0.862,-9.738 -5.023,-10.14 -1.208,2.723 -2.927,89.203 -3.665,92.62 -1.271,-0.093 -2.512,-0.149 -3.752,-0.105 0.056,4.161 -0.174,8.341 -1.575,12.298 -2.904,2.608 -3.62,1.845 -3.504,7.051 -1.203,0.341 -2.704,0.36 -3.417,1.526 -1.42,4.775 -0.143,9.929 -1.637,14.667 -1.799,-0.682 -3.547,-1.476 -5.191,-2.443 -0.943,0.366 -1.879,0.732 -2.791,1.085 -0.533,0.819 -1.054,1.643 -1.526,2.468 -0.738,0.242 -1.451,0.484 -2.133,0.732 0.019,3.51 -0.012,7.026 -0.019,10.536 -0.496,-0.093 -1.495,-0.267 -1.991,-0.36 -1.736,3.696 -1.898,7.733 -1.786,11.74 -3.091,2.005 -0.263,-0.806 -4.267,11.628 -2.797,-3.417 -0.664,-9.122 -4.322,-12.025 -0.118,-3.584 0.428,-7.343 -0.974,-10.747 -0.676,-0.757 -1.91,-1.129 -1.978,-2.251 -0.518,-4.753 1.711,-11.489 -0.577,-13.24 -0.707,0.998 -1.383,1.991 -2.09,2.964 -1.247,-1.364 -1.464,-3.225 -2.152,-4.862 -1.687,-0.254 -1.941,2.443 -2.784,3.566 -1.24,-0.211 -2.908,0.397 -3.628,-0.912 -0.484,-6.865 0.267,-13.774 -0.062,-20.633 -2.375,-0.701 -4.403,-2.189 -6.741,-2.94 -1.619,-3.485 -1.067,-7.293 -1.308,-10.995 -1.271,0.019 -2.53,0.037 -3.758,0.056 -0.28,-8.833 3.154,-95.607 2.53,-98.524 -2.127,-1.488 -4.744,-2.257 -6.45,-4.298 -1.526,-0.347 -3.063,-0.664 -4.57,-0.98 -0.068,-1.563 -0.13,-3.119 -0.186,-4.682 -1.259,-1.005 -2.623,-1.885 -4.186,-2.295 -1.16,-3.07 -0.217,-6.332 -1.005,-9.445 -0.943,0.13 -1.848,0.254 -2.747,0.378 -0.291,-0.186 -0.88,-0.552 -1.172,-0.738 0,0 1.327,-28.726 1.005,-44.335 -1.705,-0.415 -3.386,-0.899 -5.036,-1.426 -1.358,3.702 0.025,7.702 -0.912,11.467 -0.583,2.344 0.112,4.726 0.229,7.082 -0.999,0.459 -2.04,0.788 -3.113,0.713 -2.864,3.343 -1.111,8.749 -1.848,25.625 -3.324,-0.081 -6.859,-0.012 -9.817,1.668 0.074,3.287 0.099,6.574 -0.056,9.86 -4.708,-0.323 -26.342,2.359 -32.639,2.034 -1.259,7.299 -1.296,14.716 -1.42,22.096 -2.313,0.242 -4.434,1.234 -6.698,1.637 -1.154,0.13 -1.048,1.433 -1.116,2.27 -0.453,0.006 -1.358,0.025 -1.811,0.037 -0.124,0.912 -0.229,1.817 -0.322,2.722 -0.316,-0.831 -0.595,-1.681 -0.924,-2.499 -0.905,-0.707 -1.761,0.236 -2.511,0.62 -3.144,-2.964 -7.343,-5.246 -11.783,-4.583 0.279,-5.898 0.732,-11.876 0.192,-17.749 -1.699,-1.215 -3.95,-0.707 -5.885,-0.905 -0.062,-1.848 0.068,-3.771 -0.688,-5.507 -5.544,-0.384 -11.082,-0.788 -16.639,-0.651 -1.352,-3.392 -0.428,-7.082 -0.794,-10.617 -1.811,-0.273 -3.653,-0.304 -5.432,-0.589 -1.029,-4.082 1.423,-23.06 -0.924,-24.713 -2.208,-0.112 -4.391,0.347 -6.567,0.509 -0.98,-0.887 -2.028,-1.699 -2.915,-2.66 -0.639,-3.715 0.447,-7.522 -0.279,-11.256 -0.372,-0.217 -1.11,-0.657 -1.482,-0.874 0.366,-0.298 1.098,-0.905 1.464,-1.203 -0.242,-0.924 -0.31,-1.947 -1.067,-2.617 -0.893,-1.116 -1.191,-2.623 -2.381,-3.498 -0.093,-1.991 -0.13,-3.988 -0.279,-5.985 -3.547,-1.643 -7.56,0.112 -11.014,-1.767 0.099,-2.202 0.05,-4.428 -0.515,-6.574 1.135,-2.127 0.149,-4.589 0.713,-6.871 0.378,-1.11 -0.676,-1.829 -1.209,-2.642 0.341,-0.595 0.694,-1.197 1.067,-1.805 -0.8,-0.006 -1.575,-0.012 -2.326,-0.019 -0.372,0.862 -0.316,1.935 -0.936,2.636 -1.637,0.217 -3.268,0.18 -4.887,0.205 -0.304,0.881 -0.595,1.761 -0.85,2.636 -4.744,0.415 -9.513,0.217 -14.226,0.85 -0.062,4.192 -0.589,8.335 -1.699,12.378 -1.073,-0.174 -2.127,-0.347 -3.163,-0.521 -0.521,1.575 -0.614,3.237 -0.608,4.881 -0.484,0.434 -0.943,0.862 -1.383,1.29 0.471,0.812 0.992,1.6 1.426,2.45 -2.663,3.643 -1.988,6.61 -2.673,11.69 -2.294,8.667 -13.706,9.78 -14.63,10.685 -0.217,2.14 -0.056,4.298 -0.068,6.443 -1.278,-0.155 -2.512,-0.434 -3.671,-0.918 0.025,-1.569 0.664,-3.355 -0.149,-4.806 -4.279,-0.353 -8.651,-0.347 -12.899,0.267 -1.829,0.825 -3.355,2.233 -5.247,2.958 -1.346,0.304 -1.191,1.761 -1.315,2.803 0.124,2.208 -2.741,2.388 -4.062,3.591 -1.029,-0.856 -2.077,-1.681 -3.113,-2.499 -0.379,-2.679 1.038,-3.873 -4.273,-6.127 -1.327,0.614 -1.154,2.319 -1.433,3.51 -1.153,0.509 -2.239,1.16 -3.448,1.445 -1.253,-0.428 -2.45,-0.949 -3.696,-1.321 -0.112,1.792 -0.143,3.591 -0.143,5.383 -0.763,-0.025 -1.507,-0.056 -2.233,-0.087 -1.067,1.085 -2.152,2.133 -3.262,3.144 -0.65,10.978 0.176,9.206 -2.326,12.967 -0.335,-0.595 -0.657,-1.203 -0.955,-1.811 -0.354,-0.149 -1.048,-0.44 -1.402,-0.589 0.31,-13.267 0.243,-10.438 -2.406,-13.947 -0.874,0.099 -1.73,0.205 -2.561,0.304 -1.544,-2.047 -0.664,-4.781 -0.949,-7.144 -2.505,-0.205 -5.098,-0.719 -7.529,0.062 -1.879,0.614 -4.18,0.105 -5.464,1.929 -4.062,-2.793 -2.551,-2.639 -8.056,-1.848 -0.291,0.254 -0.881,0.763 -1.172,1.017 -6.638,-1.703 -0.562,-4.524 -18.636,-3.659 -0.8,6.834 -0.725,13.73 -0.688,20.608 0.081,2.89 -0.763,5.712 -0.657,8.602 0.357,28.898 0.724,25.837 -8.614,26.09 -0.106,4.322 -0.01,8.651 -0.068,12.974 -3.101,0.639 -6.388,0.322 -9.296,1.718 -3.008,0.434 -6.065,0.093 -9.085,0.136 -0.093,-0.453 -0.291,-1.364 -0.391,-1.823 -0.967,-0.031 -1.929,-0.056 -2.853,-0.081 -0.056,-1.178 -0.043,-2.357 -0.198,-3.529 -1.792,-1.129 -4.074,-0.583 -6.059,-0.757 0.26,-5.985 -0.44,-12.025 0.67,-17.941 -2.214,-0.422 -4.44,-0.781 -6.679,-0.881 0.099,-1.761 0.174,-3.522 0.316,-5.284 0.806,-0.936 0.856,-2.115 0.174,-3.138 -1.495,0.254 -3.002,0.36 -4.478,0.118 0.174,-2.468 1.092,-4.868 0.831,-7.367 -1.042,-0.31 -2.04,-0.639 -3.039,-0.992 -0.509,0.322 -1.005,0.651 -1.476,0.967 -0.36,-2.561 0.161,-5.116 0.205,-7.684 -0.44,-1.581 -2.586,-1.036 -3.808,-1.333 -0.986,-2.102 -0.713,-4.453 -0.701,-6.698 -4.453,-0.081 -8.98,0.291 -13.315,0.967 -0.806,2.164 -0.031,4.695 -0.416,6.989 -0.967,0.819 -2.394,0.54 -3.535,0.812 -0.223,5.55 -0.037,11.107 -0.112,16.657 -3.107,-0.118 -6.171,0.366 -9.246,0.589 -4.155,0.012 -8.267,-0.812 -12.422,-0.595 -0.087,-5.172 -0.01,-10.344 0.093,-15.522 -14.124,0.105 -9.078,1.124 -15.008,-0.062 -0.019,-1.978 0.118,-3.969 -0.087,-5.947 -0.948,-1.105 -22.833,-2.008 -23.454,-1.929 -1.321,0.707 -0.279,2.301 -0.062,3.355 -1.048,0.366 -1.569,1.309 -2.084,2.189 -3.733,-0.54 -7.343,0.794 -11.051,0.552 -0.304,-2.233 0.167,-4.515 -0.403,-6.716 -5.954,-0.819 -12.037,-0.415 -17.935,-1.371 -0.453,-3.002 0.682,-6.4 -1.383,-8.98 -1.37,0.136 -2.716,0.006 -3.74,-0.961 0.54,-1.854 0.633,-3.789 0,-5.637 -1.129,1.91 -3.119,2.958 -4.862,4.205 -1.265,-1.017 -2.561,-1.991 -3.857,-2.952 -0.037,-0.912 -0.056,-1.823 -0.062,-2.741 -1.643,-1.439 -3.243,-2.971 -5.377,-3.616 -2.009,-0.602 -1.197,-3.113 -1.42,-4.67 -1.699,-1.253 -3.808,-1.507 -5.817,-1.792 -0.626,0.918 -1.259,1.817 -1.891,2.71 -0.137,0.819 -0.248,1.631 -0.341,2.443 -1.222,0.695 -2.375,1.482 -3.64,2.065 -1.451,-0.719 -2.834,-1.581 -4.099,-2.58 -0.496,-2.747 -0.081,-5.588 -0.261,-8.372 -1.73,-0.192 -3.473,-0.229 -5.129,0.291 -3.752,0.949 -8.409,-1.259 -11.522,1.705 -4.267,0.428 -8.558,0.254 -12.837,0.415 -0.509,0.44 -1.011,0.881 -1.495,1.321 -0.31,-0.198 -0.936,-0.583 -1.253,-0.775 -2.133,0.304 -4.254,0.819 -6.053,2.034 -0.279,1.098 0.31,2.815 -0.961,3.367 -2.071,0.67 -4.242,1.346 -5.805,2.933 -0.329,1.774 -0.167,3.584 -0.161,5.371 -2.146,0.335 -4.316,0.44 -6.462,0.67 0.012,6.853 -0.509,13.705 -0.118,20.552 -14.291,0.902 -12.509,0.642 -13.643,2.859 -1.544,-1.668 -3.684,-2.468 -5.798,-3.088 -0.012,-5.426 0.093,-10.853 -0.056,-16.273 -4.62,1.984 -8.459,5.445 -13.042,7.498 -5.754,0.298 -6.613,-1.765 -17.848,-8.502 0.285,-0.291 0.85,-0.874 1.129,-1.166 0.043,-5.203 0.012,-10.406 -0.087,-15.609 -3.188,-0.986 -6.629,-0.453 -9.86,-1.315 -0.05,1.302 -0.068,2.605 -0.043,3.907 -1.042,0.409 -2.071,0.806 -3.088,1.209 -1.209,-0.267 -2.419,-0.533 -3.609,-0.794 -0.229,-1.166 -0.422,-2.338 -0.639,-3.504 -0.428,-0.025 -1.278,-0.074 -1.705,-0.099 -0.242,1.079 -0.223,2.233 -0.701,3.225 -2.109,1.532 -4.763,1.129 -6.915,-0.043 -0.01,-1.631 0.062,-3.281 -0.174,-4.905 -2.946,-0.726 -6.065,-1.346 -9.091,-1.247 -1.339,1.259 -0.924,3.175 -0.819,4.794 -1.067,0.67 -2.146,1.302 -3.219,1.922 -0.974,-0.794 -2.239,-1.34 -2.909,-2.412 -0.453,-2.828 -0.292,-5.718 -0.515,-8.571 -2.803,0.229 -4.527,-2.146 -6.84,-3.237 -0.174,-1.06 -0.316,-2.127 -0.49,-3.188 -0.496,0.012 -1.488,0.031 -1.984,0.043 -0.025,0.788 -0.037,1.575 -0.031,2.357 -2.183,0.815 -3.877,2.957 -7.746,-0.967 -0.756,-0.149 -1.495,-0.298 -2.214,-0.453 -0.019,0.912 -0.012,1.817 0.01,2.722 -1.34,0.905 -2.623,1.941 -4.143,2.499 -1.401,-0.651 -2.611,-1.612 -3.833,-2.512 0.037,-1.966 -0.081,-3.944 -0.682,-5.823 1.042,0.143 2.096,0.279 3.169,0.409 0.161,-0.781 0.713,-1.798 -0.074,-2.45 -4.444,-1.032 -22.175,0.071 -24.068,0.236 0.043,0.608 0.105,1.209 0.186,1.811 0.229,0.211 0.701,0.639 0.93,0.856 -0.242,2.04 -0.236,4.093 -0.298,6.14 -0.794,1.153 -2.183,1.792 -3.25,2.679 -1.023,-0.763 -2.016,-1.544 -2.952,-2.4 -0.341,-0.056 -1.029,-0.167 -1.377,-0.229 -0.471,-1.079 -0.936,-2.164 -1.395,-3.25 -1.625,0.546 -2.964,1.606 -4.223,2.723 -2.834,-2.226 -5.16,-5.234 -8.701,-6.375 -0.205,-0.602 -0.391,-1.203 -0.564,-1.805 -1.798,0.893 -3.677,0.019 -5.457,-0.397 -0.279,1.73 -0.428,3.479 -0.416,5.228 -1.619,0.279 -3.256,0.347 -4.794,-0.267 0.043,-1.873 0.012,-3.771 -0.539,-5.575 -2.611,-0.329 -5.278,-0.347 -7.74,0.664 0.112,0.378 0.341,1.135 0.459,1.513 -0.819,1.767 -1.389,3.634 -1.637,5.563 -0.856,0.701 -1.693,1.408 -2.518,2.115 -1.941,-1.023 -3.795,-2.499 -6.115,-2.344 -0.323,0.292 -0.961,0.874 -1.284,1.166 -1.011,-0.626 -2.09,-1.166 -2.94,-1.997 -0.496,-1.091 -0.416,-2.332 -0.577,-3.504 -1.482,-0.434 -2.927,-0.955 -4.341,-1.526 -0.093,-0.812 -0.161,-1.625 -0.223,-2.443 -1.606,-0.285 -3.219,-0.49 -4.825,-0.639 -0.688,0.998 -1.408,1.972 -2.177,2.896 -0.217,2.785 -0.198,5.581 -0.099,8.366 -1.91,0.229 -3.826,0.285 -5.73,0.099 -0.01,-3.882 -0.353,-7.758 -0.267,-11.647 -28.341,-2.312 -17.062,1.343 -24.205,-4.006 0.341,-1.036 0.701,-2.065 1.073,-3.101 -1.234,0.05 -2.443,0.087 -3.653,0.13 -0.18,1.104 -0.366,2.208 -0.614,3.287 0.521,3.305 0.614,6.797 -0.167,10.059 0.18,0.217 0.527,0.645 0.701,0.862 -0.292,2.927 -0.409,5.879 -0.037,8.8 -1.702,1.818 -0.944,3.26 -1.178,12.912 -0.335,0.174 -0.998,0.521 -1.327,0.701 -0.229,0.471 -0.434,0.943 -0.626,1.408 0.75,1.017 1.098,2.22 1.271,3.454 -0.881,0.905 -1.749,1.817 -2.611,2.71 -0.037,0.862 -0.05,1.718 -0.056,2.574 -0.49,0.502 -0.967,0.998 -1.433,1.495 -1.172,0.012 -2.332,0.012 -3.473,0.012 -0.242,-0.285 -0.719,-0.856 -0.955,-1.141 -4.62,1.78 -9.612,0.695 -14.412,0.695 0.093,-1.594 0.725,-3.436 -0.496,-4.775 -0.67,-1.581 -2.481,-1.166 -3.845,-1.296 -0.186,-0.229 -0.552,-0.688 -0.738,-0.918 -0.025,-1.65 -0.099,-3.299 -0.236,-4.943 -2.667,0.037 -5.085,1.6 -7.789,1.309 -3.07,-0.26 -6.189,0.738 -9.191,-0.254 -2.282,-0.713 -4.633,-1.141 -7.014,-1.253 -0.422,0.509 -0.825,1.005 -1.222,1.501 -0.447,5.16 0.05,10.35 -0.372,15.51 -2.722,0.298 -5.426,0.825 -8.167,0.62 -0.806,0.49 -1.662,0.887 -2.53,1.203 -0.44,-0.428 -0.868,-0.856 -1.284,-1.284 -2.016,0.558 -4.812,-1.042 -6.096,1.085 -0.304,0.012 -0.912,0.031 -1.216,0.037 -0.385,-5.966 -0.074,-11.957 -0.298,-17.929 -0.93,-1.792 -3.51,-1.538 -5.247,-1.693 -0.515,0.943 -1.029,1.891 -1.526,2.828 -0.608,-0.484 -1.11,-1.054 -1.501,-1.718 -2.555,-0.509 -5.29,-0.019 -7.69,-1.191 0.905,-3.64 -0.012,-7.423 0.093,-11.132 -1.265,-0.254 -2.543,-0.465 -3.746,-0.887 -0.285,-1.023 -0.44,-2.084 -0.639,-3.132 -1.451,0.812 -2.94,1.563 -4.508,2.084 -1.395,2.171 0.322,4.918 -1.569,6.822 0.385,0.589 0.781,1.172 1.197,1.755 -0.012,3.361 -0.546,6.741 0.112,10.078 -0.657,0.664 -1.395,1.209 -2.028,1.867 -0.037,1.122 0.205,2.226 0.36,3.33 -1.104,0.905 -2.468,1.792 -2.301,3.423 0.099,1.433 -1.147,2.226 -1.879,3.262 0.223,2.84 -0.279,5.718 0.521,8.502 -0.769,0.676 -1.526,1.358 -2.27,2.04 0.099,2.605 -0.01,5.234 0.49,7.814 -1.048,0.205 -2.4,-0.198 -3.15,0.726 -0.515,3.281 -0.998,6.592 -0.8,9.916 -0.688,0.757 -1.377,1.513 -2.053,2.264 -0.757,-0.874 -1.34,-2.078 -2.543,-2.4 -1.724,-0.422 -3.566,-0.229 -5.172,-1.048 0.136,-2.034 0.124,-4.074 0.019,-6.109 -0.508,-0.037 -1.519,-0.124 -2.028,-0.167 0.831,-0.682 1.637,-1.42 2.288,-2.295 -2.419,-1.054 -5.544,0.186 -7.597,-1.464 -0.112,-2.381 0,-4.775 -0.198,-7.157 -2.648,0.124 -4.943,-1.24 -7.219,-2.375 0.037,-1.47 0.552,-2.84 1.371,-4.062 -0.912,-0.651 -1.817,-1.309 -2.71,-1.972 0.012,-0.378 0.025,-1.129 0.031,-1.507 0.651,-0.347 1.308,-0.701 1.978,-1.054 -0.304,-0.521 -0.595,-1.036 -0.874,-1.557 -0.447,0.012 -1.339,0.043 -1.786,0.062 -0.67,-0.353 -1.327,-0.707 -1.978,-1.06 0.341,-1.036 0.719,-2.065 1.141,-3.088 -0.769,-0.521 -1.513,-1.048 -2.264,-1.581 0.074,-1.054 0.161,-2.115 0.254,-3.175 -0.843,-0.881 -2.406,-1.606 -1.935,-3.07 0.49,-6.605 -0.422,-13.265 0.354,-19.839 -0.329,-0.447 -0.645,-0.899 -0.955,-1.352 0.217,-3.219 0.26,-6.474 -0.236,-9.674 -1.321,-0.112 -2.623,-0.242 -3.919,-0.391 -0.087,-1.154 -0.167,-2.307 -0.242,-3.467 -1.439,0.118 -2.859,0.211 -4.279,0.279 -1.395,5.991 0.18,12.223 -0.744,18.288 -0.391,-0.341 -1.178,-1.023 -1.569,-1.364 -0.974,0.893 -1.774,1.947 -2.574,2.977 -0.081,-0.589 -0.248,-1.755 -0.329,-2.344 -2.809,0.763 -5.829,-0.161 -8.521,0.943 -1.24,-0.316 -2.474,-0.645 -3.696,-0.98 -0.341,0.205 -1.023,0.614 -1.364,0.819 -0.651,-0.397 -1.296,-0.8 -1.916,-1.209 -0.614,0.298 -1.216,0.595 -1.805,0.893 -0.347,-1.11 -0.955,-2.195 -0.918,-3.392 0.316,-4.316 -0.143,-8.633 -0.068,-12.955 -1.495,-0.279 -2.989,-0.54 -4.484,-0.763 -0.136,-1.352 -0.279,-2.716 -0.428,-4.074 -1.271,-0.124 -2.543,-0.136 -3.795,-0.056 -0.149,1.6 -0.254,3.2 -0.347,4.8 -1.563,0.322 -3.169,0.8 -4.763,0.453 -0.955,-1.581 -0.62,-3.522 -0.757,-5.278 -2.853,-0.558 -5.805,-0.161 -8.608,-0.974 -1.253,-0.291 -2.53,-0.465 -3.789,-0.657 -0.292,-0.291 -0.874,-0.881 -1.166,-1.178 -0.595,1.06 -0.8,2.27 -1.154,3.411 -2.22,0.037 -4.459,-0.068 -6.648,0.273 -0.794,0.707 -0.521,1.817 -0.571,2.735 -0.047,10.93 1.385,9.299 -3.442,11.225 -3.629,0.864 -4.218,3.034 -13.352,-1.135 -1.365,-0.555 -0.767,-6.193 -0.955,-12.403 -1.042,-0.043 -2.084,-0.081 -3.107,-0.13 -0.851,2.23 -3.129,15.13 -3.064,16.701 -0.037,0.899 0.167,1.966 -0.769,2.474 -2.04,-0.043 -3.888,-1.029 -5.724,-1.792 -1.302,3.2 0.025,6.735 -1.315,9.91 -0.775,-0.335 -1.457,-0.701 -2.208,-1.054 -0.01,3.752 0.01,7.553 -0.881,11.219 -6.764,0.385 -3.513,-1.043 -11.913,-1.588 -0.26,-0.837 -0.502,-1.681 -0.744,-2.518 -4.074,2.601 -3.513,3.979 -8.068,2.022 -0.31,-1.122 -0.819,-2.902 -2.369,-2.369 -1.687,0.062 -1.73,1.91 -2.084,3.132 h -1.879 c -0.124,-0.949 -0.211,-1.904 -0.31,-2.859 -1.085,-0.149 -2.177,-0.298 -3.243,-0.453 -3.237,11.23 -1.358,14.117 -2.623,19.758 -1.619,2.847 -5.073,3.864 -7.293,6.158 -0.304,1.532 0.701,3.969 -1.098,4.738 -0.205,-1.557 -0.056,-3.206 -0.62,-4.695 -1.389,-1.724 -3.566,-2.915 -5.786,-2.115 -0.143,2.437 -2.425,3.696 -3.293,5.811 -1.705,0.211 -3.591,0.62 -4.564,2.195 -0.347,1.755 -0.105,3.603 -0.719,5.302 -2.164,-0.664 -0.558,-4.174 -1.811,-5.674 -2.208,-2.059 -5.067,-3.2 -7.442,-5.017 -0.955,-1.581 -0.608,-3.622 -0.769,-5.402 -0.205,-0.316 -0.602,-0.949 -0.8,-1.259 1.34,-5.817 -1.557,-11.293 -1.761,-17.042 -1.55,0.651 -3.057,1.377 -4.515,2.177 -1.352,-0.75 -2.698,-1.495 -4,-2.326 -0.726,0.893 -1.377,1.842 -2.208,2.623 -1.687,0.546 -3.516,0.366 -5.178,-0.149 0.143,-1.284 0.267,-2.567 0.397,-3.857 -1.755,0.409 -3.547,0.645 -5.34,0.738 -0.087,3.926 -1.724,7.702 -1.308,11.653 0.44,3.095 -0.688,6.121 -0.701,9.209 -2.419,1.798 -4.893,3.51 -7.349,5.24 -0.471,1.916 -0.397,3.901 -0.726,5.829 -0.285,0.105 -0.844,0.304 -1.129,0.409 -0.592,-5.329 0.226,-8.423 -5.259,-6.989 -0.062,-2.22 -1.805,-3.467 -3.516,-4.508 -0.068,-2.164 0.329,-4.496 -0.967,-6.406 0.682,-2.989 0.409,-6.084 -0.564,-8.98 -2.058,-6.3 0.168,-13.726 -1.811,-16.434 -0.409,1.005 -0.794,2.009 -1.184,3.008 -3.2,-3.392 -1.122,-8.447 -2.245,-12.558 -3.541,0.056 -7.057,-0.384 -10.586,-0.515 -0.012,-11.498 -0.918,-22.977 -0.763,-34.474 -2.592,0.893 -1.116,4.068 -1.29,6.071 -1.346,0.18 -2.692,0.298 -4.031,0.391 -0.099,1.507 -0.198,3.008 -0.31,4.509 -3.361,0.155 -6.723,0.025 -10.084,0.087 -0.037,-2.729 -0.149,-5.451 -0.279,-8.174 -3.646,-0.698 -10.992,0.002 -12.223,0.31 -0.01,3.392 -0.285,6.791 -0.626,10.164 -3.473,0.924 -7.169,0.366 -10.716,0.223 -0.025,-3.454 -1.085,-6.828 -0.819,-10.288 h -1.767 c -0.099,0.335 -0.304,1.011 -0.403,1.346 -3.764,0.788 -7.584,0.273 -11.38,0.143 -0.781,-0.707 -1.668,-1.29 -2.642,-1.674 -0.502,1.78 -1.476,3.374 -3.144,4.248 -0.192,2.257 -0.186,4.521 -0.143,6.778 -2.226,0.043 -4.546,-0.198 -6.543,0.967 -1.612,-0.397 -3.194,-0.899 -4.831,-1.122 0.05,-2.629 -0.093,-5.278 -0.794,-7.826 -2.878,0.254 -5.823,0.484 -8.155,2.381 0.01,2.22 0.025,4.434 0.074,6.654 -0.695,0.248 -1.383,0.496 -2.065,0.744 -0.136,0.347 -0.416,1.036 -0.552,1.383 -0.682,0.087 -1.358,0.167 -2.022,0.248 -0.242,-0.595 -0.477,-1.197 -0.707,-1.805 -2.53,0.415 -5.073,0.056 -7.566,-0.347 0.211,-2.586 0.155,-5.184 0.056,-7.777 -1.147,0.019 -2.282,0.025 -3.417,0.037 0.279,7.398 0.118,14.797 0.149,22.195 -3.274,-0.502 -6.505,-1.377 -9.83,-1.445 0.783,5.676 0.931,26.651 0.608,27.833 -2.598,0.087 -5.197,0.192 -7.795,0.242 -1.519,3.482 -0.557,2.847 -8.701,2.847 -0.062,-0.509 -0.186,-1.532 -0.248,-2.047 -0.961,0.006 -1.916,0.012 -2.865,0.006 -4.89,-2.511 -10.527,-0.151 -10.493,-2.512 -0.453,-3.429 0.329,-6.952 -0.546,-10.338 2.251,-0.372 2.437,-3.882 -0.062,-3.957 0.248,-1.364 0.093,-2.735 -0.205,-4.081 -1.06,0.019 -2.121,0.037 -3.163,0.043 0.112,-2.468 0.329,-5.005 -0.446,-7.398 -0.812,0.701 -1.327,1.643 -1.185,2.735 0.167,5.662 0.01,11.355 0.874,16.961 -0.881,0.453 -1.823,0.719 -2.741,1.029 -0.093,1.116 -0.037,2.27 -0.341,3.355 -1.383,0.564 -2.803,1.029 -4.124,1.718 -2.667,-0.614 -5.6,-1.259 -8.037,0.384 -0.18,2.94 0.583,6.04 -0.471,8.856 -4.05,-0.558 -7.913,0.992 -11.938,0.93 -0.236,-0.31 -0.713,-0.93 -0.949,-1.24 -0.608,-0.167 -1.209,-0.341 -1.798,-0.515 -0.105,-2.884 -0.354,-5.767 -0.335,-8.657 -0.329,-0.031 -0.98,-0.093 -1.302,-0.118 -1.792,-2.474 -5.141,-1.798 -7.677,-2.555 -0.385,-1.135 -0.335,-2.357 -0.447,-3.547 -0.726,-0.019 -1.451,-0.037 -2.164,-0.062 -0.174,-0.248 -0.509,-0.744 -0.676,-0.992 1.017,-4.31 -0.749,-40.434 -0.794,-41.054 -0.912,0.025 -1.674,-0.298 -2.226,-1.017 0.366,1.656 -1.805,2.071 -2.406,0.67 0.595,1.705 -1.271,2.04 -2.431,2.518 -0.161,-0.453 -0.484,-1.364 -0.645,-1.817 -1.178,0.149 -2.357,0.242 -3.529,0.267 -0.465,-0.515 -0.93,-1.029 -1.395,-1.538 -0.385,-1.085 -0.769,-2.177 -1.147,-3.268 -1.011,-0.105 -2.016,-0.217 -3.014,-0.322 -0.242,7.95 0.341,15.901 0.509,23.845 -0.087,0.198 -0.248,0.589 -0.335,0.781 -1.898,0.279 -3.82,0.087 -5.718,-0.019 1.085,-4.393 0.906,-1.163 0.05,-24.533 -2.233,0.043 -4.453,-0.335 -6.673,-0.242 -1.062,2.582 0.987,78.672 1.042,79.293 -1.017,0.18 -2.022,0.347 -3.02,0.527 -0.323,1.966 0.912,4.713 -0.825,6.115 -3.231,0.248 -6.648,-0.291 -9.631,1.302 0.13,1.005 0.254,2.009 0.378,3.008 -2.245,0.645 -4.633,0.44 -6.76,-0.502 -0.025,-0.949 -0.037,-1.904 -0.05,-2.859 -3.212,-1.78 -6.927,-1.352 -10.412,-2.009 -0.01,-0.837 0,-1.674 0.012,-2.518 -0.279,-0.31 -0.831,-0.924 -1.11,-1.234 0.13,-0.453 0.397,-1.358 0.527,-1.811 -1.135,-0.242 -2.264,-0.502 -3.386,-0.757 0.193,-2.497 -1.468,-47.123 -1.873,-63.237 -3.808,-1.42 -7.994,-0.316 -11.839,-1.544 -0.558,-1.327 -0.291,-2.871 -0.502,-4.285 -0.558,0.8 -1.079,1.625 -1.569,2.456 -1.544,0.595 -3.2,0.54 -4.819,0.459 -0.167,1.017 -0.341,2.028 -0.502,3.033 0.378,1.495 0.546,3.033 0.645,4.558 -3.814,-0.068 -7.616,0.366 -11.423,0.267 -0.236,1.141 -0.471,2.276 -0.713,3.417 -9.887,-0.736 -4.928,1.141 -11.398,-0.025 -0.347,-1.203 -0.726,-2.406 -1.265,-3.541 -1.011,1.891 -1.402,4.012 -1.265,6.14 -1.836,0.254 -3.541,0.943 -5.296,1.457 -1.563,0.136 -2.971,-0.738 -4.471,-0.992 -1.767,-0.273 -3.553,-0.378 -5.309,-0.664 0.217,-1.91 0.229,-3.833 0.205,-5.755 -5.44,-0.264 -1.748,-1.571 -21.216,-1.451 0.229,-1.178 0.484,-2.363 0.744,-3.541 -0.509,0.062 -1.687,-0.837 -1.631,0.099 -0.01,3.051 0.515,6.115 0.068,9.153 0.322,1.944 1.733,55.204 1.78,58.375 -1.06,3.659 -0.583,7.467 -0.502,11.219 -3.678,-0.012 -7.343,0.229 -11.014,0.329 0.533,0.515 1.06,1.029 1.6,1.544 -0.174,0.335 -0.521,1.005 -0.695,1.34 -1.333,-0.223 -2.598,-0.688 -3.764,-1.358 0.118,-0.478 0.353,-1.445 0.471,-1.929 -5.736,0.595 -11.33,-1.495 -17.036,-1.352 -0.478,-0.378 -0.949,-0.763 -1.414,-1.147 0.32,-7.105 -4.022,-5.636 -0.571,-7.343 -1.048,-0.062 -2.096,-0.143 -3.138,-0.223 -0.025,0.825 -0.043,1.65 -0.068,2.468 -1.687,-0.366 -3.721,-0.124 -4.943,-1.575 -0.955,-0.974 -2.22,-1.495 -3.479,-1.947 -0.087,-2.66 -0.136,-5.315 -0.087,-7.975 -1.643,-0.242 -3.287,-0.515 -4.924,-0.763 -0.062,-2.195 -0.124,-4.384 -0.167,-6.58 -1.116,-0.391 -2.586,-0.316 -3.312,-1.408 0.682,-0.819 1.482,-1.544 2.264,-2.276 -0.471,-0.49 -0.943,-0.986 -1.408,-1.482 0.31,-0.366 0.626,-0.738 0.949,-1.11 -0.868,-1.042 -0.726,-2.319 -0.397,-3.553 -0.521,-0.322 -1.042,-0.639 -1.557,-0.967 0.074,0.887 0.149,1.767 0.236,2.648 -3.227,2.158 -2.598,2.025 -2.822,8.688 -1.011,0.242 -2.034,0.465 -3.051,0.67 -0.161,3.293 1.129,6.964 -0.924,9.898 -0.01,0.695 0,1.389 0.01,2.078 -0.279,0.205 -0.831,0.62 -1.104,0.825 -0.043,2.245 -0.13,4.49 -0.248,6.722 -0.279,0 -0.85,0 -1.135,-0.006 -0.285,-2.245 -0.62,-4.49 -0.961,-6.735 -0.484,-0.31 -0.967,-0.62 -1.451,-0.936 0.012,-0.459 0.037,-1.377 0.05,-1.836 -0.471,-0.453 -0.912,-0.936 -1.321,-1.451 -0.112,-2.871 -0.043,-5.749 -0.223,-8.626 -0.998,-0.019 -1.991,-0.043 -2.977,-0.074 0.019,-3.392 -0.502,-6.816 -2.22,-9.786 -1.284,-0.242 -2.524,-0.651 -3.615,-1.377 -0.112,0.285 -0.329,0.862 -0.44,1.147 1.302,2.481 0.651,5.309 0.595,7.969 -1.005,0.019 -2.016,0.031 -3.02,0.031 0.062,2.927 0.254,5.848 0.322,8.769 -0.304,0.223 -0.905,0.657 -1.209,0.881 0.031,0.757 0.074,1.507 0.112,2.257 -0.285,0.236 -0.856,0.701 -1.141,0.936 -0.155,2.189 -0.043,4.391 -0.273,6.574 -1.752,2.253 -1.821,-3.889 -1.898,-6.121 -0.347,-0.223 -1.042,-0.67 -1.383,-0.893 -0.074,-0.794 -0.143,-1.594 -0.205,-2.4 -0.471,-0.446 -0.936,-0.899 -1.395,-1.352 -0.05,-2.76 -0.031,-5.526 -0.198,-8.285 -0.974,-0.112 -1.941,-0.223 -2.909,-0.335 0.26,-3.448 -0.657,-6.766 -2.487,-9.674 -0.788,-0.099 -1.563,-0.242 -2.332,-0.422 -2.195,-2.946 -1.656,-6.76 -1.619,-10.195 -1.929,-0.149 -3.851,-0.273 -5.774,-0.372 0.025,-1.358 0.062,-2.71 0.093,-4.074 -0.589,-0.05 -1.774,-0.161 -2.363,-0.217 0.031,0.918 0.031,1.829 0,2.735 -0.726,1.079 -2.171,1.42 -2.902,2.493 -0.465,1.625 -0.397,3.33 -0.496,4.998 -0.943,1.054 -1.389,2.673 -2.654,3.33 -2.425,-1.519 -2.84,-4.633 -3.343,-7.237 -0.205,-1.966 -2.598,-2.177 -3.51,-3.64 -0.105,-0.912 -0.087,-1.829 -0.099,-2.754 -0.459,-0.031 -1.371,-0.093 -1.823,-0.124 -0.837,-3.64 -0.763,-7.398 -1.116,-11.101 -0.695,-0.124 -1.383,-0.26 -2.065,-0.403 -0.571,-1.147 -1.823,-1.104 -2.915,-1.178 -0.558,0.509 -1.116,0.998 -1.681,1.488 -0.614,-0.726 -1.222,-1.451 -1.836,-2.177 -0.161,-1.718 -0.322,-3.436 -0.446,-5.153 -0.812,-0.254 -1.625,-0.515 -2.425,-0.775 0.05,-1.699 0.099,-3.405 0.167,-5.11 -2.35,-0.05 -4.701,-0.093 -7.039,-0.285 0.087,-1.098 0.186,-2.208 0.279,-3.318 -1.048,-0.087 -2.084,-0.174 -3.126,-0.26 0.198,-1.55 0.329,-3.119 0.279,-4.688 -0.496,-0.087 -1.501,-0.254 -1.997,-0.341 -0.31,-0.496 -0.62,-0.998 -0.918,-1.501 -1.798,-0.254 -3.603,-0.428 -5.414,-0.453 -0.533,-1.209 -0.881,-2.487 -1.017,-3.802 -0.664,-0.955 -1.519,-1.749 -2.791,-1.569 0.542,2.784 0.469,19.803 0.459,20.881 -4.564,0.316 -9.135,0.471 -13.699,0.719 0.484,2.636 0.664,5.327 0.223,7.981 -2.028,0.025 -3.802,0.961 -5.557,1.86 -2.183,-0.819 -4.378,-1.78 -6.803,-1.767 0.304,-2.257 0.688,-4.521 0.558,-6.809 -1.86,-0.124 -1.836,1.581 -1.966,2.977 -1.302,-0.043 -2.598,-0.099 -3.895,-0.149 -0.279,10.35 0.726,20.67 0.645,31.02 -1.786,0.477 -3.597,0.806 -5.426,0.98 -0.093,0.856 -0.186,1.712 -0.273,2.561 -0.924,0.825 -1.836,1.656 -2.766,2.474 0,1.451 0.062,2.896 0.155,4.335 -1.073,0.205 -2.133,0.415 -3.194,0.651 -2.679,-0.695 -5.482,0.161 -8.13,-0.496 -0.099,-1.377 -0.062,-2.772 -0.081,-4.161 -1.842,-1.526 -1.705,-3.963 -1.699,-6.121 -2.679,-0.186 -6.412,1.433 -8.242,-1.234 -0.986,-0.992 0.732,-1.941 0.354,-3.039 -4.515,0.403 -8.974,-0.527 -13.445,-0.918 -0.471,-0.372 -0.943,-0.75 -1.408,-1.135 -3.101,0.781 -6.115,-0.614 -9.215,-0.614 -0.031,-2.927 0.019,-5.922 -0.918,-8.738 -0.732,-2.983 -0.397,-6.109 -0.819,-9.147 -0.887,0.006 -1.774,0.006 -2.654,0 0.01,2.623 0.025,5.247 0.124,7.864 -2.543,1.135 -5.395,0.62 -8.056,1.24 -0.143,2.326 -0.124,4.651 0.01,6.971 -4.174,0.415 -8.397,0.577 -12.577,0.18 -0.198,-2.369 -0.403,-4.744 -0.75,-7.101 -2.617,-0.025 -5.228,-0.124 -7.826,-0.44 -1.594,-20.771 0.514,-18.167 -3.312,-18.419 0.105,1.513 0.192,3.026 0.236,4.54 -3.764,0.515 -7.597,-0.099 -11.33,0.67 0.031,1.414 0.229,2.847 -0.037,4.242 -0.763,0.118 -1.532,0.211 -2.301,0.273 -0.124,1.457 -0.285,2.909 -0.465,4.353 -0.26,0.254 -0.781,0.757 -1.042,1.005 -2.257,0.093 -4.521,0.13 -6.778,0.149 -0.087,-1.736 -0.186,-3.479 -0.26,-5.222 -0.794,-0.081 -1.581,-0.161 -2.369,-0.248 -0.161,-1.439 -0.267,-2.884 -0.353,-4.329 -0.273,-0.093 -0.831,-0.285 -1.11,-0.385 -0.186,4.664 0.13,9.321 0.279,13.972 -1.209,0.136 -2.425,0.254 -3.64,0.347 -2.598,2.815 -0.322,7.324 -2.834,10.109 -0.738,0.967 -1.612,-0.105 -2.133,-0.67 -1.55,0.236 -3.38,1.259 -4.788,0.074 -1.47,-0.93 -2.859,-2.195 -4.676,-2.344 -1.16,-0.186 -2.605,0.335 -3.374,-0.837 -0.887,4.347 1.172,8.509 0.67,12.862 -1.122,-0.496 -2.102,-1.333 -3.299,-1.65 -2.766,-0.465 -5.457,0.719 -8.223,0.49 0.155,1.904 0.347,4.459 -2.028,4.967 -0.409,-1.867 -0.676,-3.752 -0.912,-5.65 -3.622,0.465 -7.411,0.558 -10.958,-0.335 -2.574,-2.034 -2.171,-5.693 -2.685,-8.614 C 516.9263,121.9334 439.8001,74.82636 324.7845,47.97561 184.2904,15.17682 0.8044,1.44933 0,1.54501 L 513.173,0 3688.363,1.54501 c 0,0 -359.6754,11.65205 -461.3804,40.53786 z M 2554.268,168.785 c 0.217,-0.812 0.397,-1.637 0.719,-2.443 0.701,-0.806 1.866,-0.837 2.865,-1.153 -1.085,-0.019 -2.152,-0.062 -3.181,-0.155 -0.477,1.196 -0.459,2.492 -0.403,3.751 z m -312.62,-13.959 c 0.85,-0.025 0.837,-1.507 0.366,-2.003 -0.862,0.037 -0.905,1.525 -0.366,2.003 z m -130.952,-5.464 c 0.198,-1.153 0.198,-2.326 0.304,-3.498 -0.31,-0.031 -0.924,-0.093 -1.228,-0.124 0.267,1.104 -0.62,3.368 0.924,3.622 z"
   id="path2"
   style="fill:#520000;fill-opacity:1"
   inkscape:connector-curvature="0"
   sodipodi:nodetypes="zcccccccccccccccccccccccccccccccccccccccccccccccccccccccccccccccccccccccccccccccccccccccccccccccccccccccccccccccccccccccccccccccccccccccccccccccccccccccccccccccccccccccccccccccccccccccccccccccccccccccccccccccccccccccccccccccccccccccccccccccccccccccccccccccccccccccccccccccccccccccccccccccccccccccccccccccccccccccccccccccccccccccccccccccccccccccccccccccccccccccccccccccccccccccccccccccccccccccccccccccccccccccccccccccccccccccccccccccccccccccccccccccccccccccccccccccccccccccccccccccccccccccccccccccccccccccccccccccccccccccccccccccccccccccccccccccccccccccccccccccccccccccccccccccccccccccccccccccccccccccccccccccccccccccccccccccccccccccccccccccccccccccccccccccccccccccccccccccccccccccccccccccccccccccccccccccccccccccccccccccccccccccccccccccccccccccccccccccccccccccccccccccccccccccccccccccccccccccccccccccccccccccccccccsccczcccccccccccc" />
</svg>